Coordinates
version=1
nRows=16
nColumns=40
inDegrees=yes

Units are S.I. units (second, meters, Newtons, ...)
Angles are in degrees.

endheader
time	pelvis_tilt	pelvis_list	pelvis_rotation	pelvis_tx	pelvis_ty	pelvis_tz	hip_flexion_r	hip_adduction_r	hip_rotation_r	knee_angle_r	knee_angle_r_beta	ankle_angle_r	subtalar_angle_r	mtp_angle_r	hip_flexion_l	hip_adduction_l	hip_rotation_l	knee_angle_l	knee_angle_l_beta	ankle_angle_l	subtalar_angle_l	mtp_angle_l	lumbar_extension	lumbar_bending	lumbar_rotation	arm_flex_r	arm_add_r	arm_rot_r	elbow_flex_r	pro_sup_r	wrist_flex_r	wrist_dev_r	arm_flex_l	arm_add_l	arm_rot_l	elbow_flex_l	pro_sup_l	wrist_flex_l	wrist_dev_l
      8.50750000	     -5.11408570	     -4.29747355	      3.39832646	      0.76931486	      0.93137365	      0.50667982	     11.40830242	      3.66864205	    -17.59583845	     14.06453899	     14.06453899	      9.37593550	     -1.26565350	     -5.02789896	     33.44055285	    -10.30085304	      1.02953365	     51.52717636	     51.52717636	      7.69898626	    -18.01753696	     10.22405032	    -10.26160179	      6.59066614	      1.86638366	     25.49818930	    -18.56039129	     -5.04579817	     80.25345862	     44.78594080	      0.00000000	      0.00000000	     -1.79999702	     -7.17499705	     -2.67475620	     28.27154627	     46.03337349	      0.00000000	      0.00000000
      8.52100000	     -5.24063088	     -4.29355392	      3.77283818	      0.76812777	      0.93163627	      0.50661802	     10.78026109	      3.76181161	    -17.88637844	     13.35221450	     13.35221450	      9.43688837	     -1.04840391	     -5.01693700	     33.78813830	     -9.97326841	      0.95362661	     47.76875119	     47.76875119	      8.09239447	    -17.83650348	     10.57106268	    -10.22766743	      6.61794274	      1.91053342	     27.30678838	    -18.61264042	     -5.29259477	     82.03616386	     44.75093054	      0.00000000	      0.00000000	     -2.73210177	     -7.18045811	     -2.55753070	     27.95377891	     45.99652401	      0.00000000	      0.00000000
      8.53450000	     -5.38914603	     -4.35089336	      4.14884212	      0.76701758	      0.93162305	      0.50639285	     10.16238781	      3.87431671	    -18.48670739	     12.62762345	     12.62762345	      9.46352258	     -0.33180652	     -5.35586915	     34.02791478	     -9.64204038	      0.97088985	     43.81880132	     43.81880132	      8.25017588	    -17.45771620	     10.19950209	    -10.19219802	      6.75283274	      2.23103496	     28.61045212	    -19.13931528	     -5.36754252	     85.08334211	     44.68756004	      0.00000000	      0.00000000	     -3.75872293	     -7.23376760	     -2.13810871	     28.40478508	     45.90228626	      0.00000000	      0.00000000
      8.54800000	     -5.55213746	     -4.35654833	      4.46322265	      0.76589557	      0.93151536	      0.50607885	      9.67015407	      3.94362454	    -18.72213003	     12.10854219	     12.10854219	      9.59372464	     -0.16465145	     -5.39226435	     34.14505621	     -9.23589125	      0.98278642	     39.77821471	     39.77821471	      8.58546246	    -16.69567895	     10.46046361	    -10.08485058	      6.80872959	      2.40983502	     30.38460246	    -19.29241170	     -5.54517423	     86.48196489	     44.66161165	      0.00000000	      0.00000000	     -4.59215341	     -7.26366213	     -2.00338738	     28.27755379	     45.86493259	      0.00000000	      0.00000000
      8.56150000	     -5.60630105	     -4.47168656	      4.81309962	      0.76497272	      0.93135613	      0.50560012	      8.97086158	      4.09789709	    -19.44466429	     11.45465655	     11.45465655	      9.68778288	      0.79210468	     -5.80978930	     34.02053836	     -8.90319192	      1.13825862	     35.63436139	     35.63436139	      8.38087167	    -15.79900266	      9.30506149	    -10.13629434	      7.00300019	      2.63831164	     31.68550966	    -19.74174924	     -5.37057045	     89.32187945	     44.61082418	      0.00000000	      0.00000000	     -5.84509866	     -7.48560872	     -1.05047448	     29.49934730	     45.68514276	      0.00000000	      0.00000000
      8.57500000	     -5.70596340	     -4.56619436	      5.12731316	      0.76407818	      0.93102190	      0.50505423	      8.37902013	      4.27289925	    -19.74118472	     10.89159730	     10.89159730	      9.84815736	      1.04863534	     -5.86269400	     33.93461432	     -8.56910445	      1.24393892	     31.75847769	     31.75847769	      8.68214480	    -14.38334622	      9.48086617	    -10.04383219	      7.17132664	      2.66416842	     33.43969386	    -19.66522398	     -5.43349097	     90.69313882	     44.58770387	      0.00000000	      0.00000000	     -6.68226011	     -7.50916463	     -0.70554101	     29.49935330	     45.61912651	      0.00000000	      0.00000000
      8.58850000	     -5.76756590	     -4.67322868	      5.36554214	      0.76328757	      0.93064707	      0.50453735	      7.80231109	      4.44271183	    -20.00774362	     10.45315635	     10.45315635	     10.05162931	      1.41175115	     -5.98862879	     33.76178338	     -8.30576107	      1.28066140	     28.12545000	     28.12545000	      8.92703405	    -12.71279910	      9.77689607	     -9.99250851	      7.30277010	      2.80083343	     34.98043796	    -19.68253455	     -5.38148127	     91.95263761	     44.56064395	      0.00000000	      0.00000000	     -7.53149137	     -7.60891279	     -0.46154168	     29.60898957	     45.56839469	      0.00000000	      0.00000000
      8.60200000	     -5.90456242	     -4.82912024	      5.61887410	      0.76252490	      0.92996063	      0.50383885	      7.34892459	      4.64205210	    -20.25982455	     10.09366549	     10.09366549	     10.28986307	      1.64656283	     -6.10981168	     33.74628257	     -8.07188883	      1.32554893	     24.97052237	     24.97052237	      9.09979559	    -11.07976341	     10.15739691	     -9.81075647	      7.52396176	      2.98230031	     36.50958942	    -19.77161842	     -5.38264953	     92.97521203	     44.53940148	      0.00000000	      0.00000000	     -8.20828753	     -7.57669526	     -0.29660669	     29.70451547	     45.53250630	      0.00000000	      0.00000000
      8.61550000	     -5.79111438	     -4.92477420	      5.80299482	      0.76222043	      0.92963555	      0.50323882	      6.50966720	      4.84087320	    -20.50945118	      9.57857613	      9.57857613	     10.53968299	      2.17013799	     -6.23576319	     33.39735094	     -7.91302169	      1.07737430	     22.23593833	     22.23593833	      9.23262659	     -9.36455258	     10.59299630	     -9.90230939	      7.59414449	      2.97211576	     37.84244342	    -19.57242902	     -5.10468228	     94.27671713	     44.50340499	      0.00000000	      0.00000000	     -9.12917486	     -7.72570963	     -0.01737991	     30.01669275	     45.47567796	      0.00000000	      0.00000000
      8.62900000	     -5.75327428	     -5.06815760	      5.97989490	      0.76195151	      0.92904796	      0.50250066	      5.79066272	      5.07080276	    -20.73328259	      9.13197555	      9.13197555	     10.81683093	      2.59527632	     -6.34318279	     33.25802510	     -7.79411098	      0.76800714	     20.18400723	     20.18400723	      9.28588730	     -7.92207423	     11.02715864	     -9.87483097	      7.74829468	      2.99058749	     39.10565057	    -19.44606164	     -4.82357010	     95.30066360	     44.47791713	      0.00000000	      0.00000000	     -9.97888609	     -7.82000685	      0.32914892	     30.47373244	     45.41163694	      0.00000000	      0.00000000
      8.64250000	     -5.69972486	     -5.17911083	      6.10148612	      0.76191253	      0.92843171	      0.50172727	      5.06831847	      5.26464174	    -20.83117281	      8.75022281	      8.75022281	     11.12900396	      2.90685589	     -6.39983813	     33.13888892	     -7.68487451	      0.33639282	     18.75736723	     18.75736723	      9.21611338	     -6.86663448	     11.38681508	     -9.81531416	      7.82950932	      3.00502392	     40.20990688	    -19.25356683	     -4.54224990	     96.07567058	     44.46063133	      0.00000000	      0.00000000	    -10.77013289	     -7.92924022	      0.69979497	     30.89739940	     45.34741707	      0.00000000	      0.00000000
      8.65600000	     -5.64160251	     -5.27654343	      6.19356193	      0.76207084	      0.92775843	      0.50091853	      4.34111730	      5.44789691	    -20.84324132	      8.40068316	      8.40068316	     11.47826488	      3.14873477	     -6.39951966	     33.04561041	     -7.58440402	     -0.13012502	     17.93745979	     17.93745979	      9.00135855	     -6.20530015	     11.57906294	     -9.70879188	      7.87172232	      3.00958493	     41.16940196	    -18.99746028	     -4.25227752	     96.66489231	     44.44953879	      0.00000000	      0.00000000	    -11.49929309	     -8.02526084	      1.09918729	     31.27012674	     45.28311477	      0.00000000	      0.00000000
      8.66950000	     -5.66024243	     -5.40503485	      6.29920023	      0.76236878	      0.92677461	      0.49997014	      3.85013475	      5.59623219	    -20.86125808	      8.37500440	      8.37500440	     11.93312245	      3.10160442	     -6.52863192	     33.17928989	     -7.47676566	     -0.41487608	     17.86747040	     17.86747040	      8.66186805	     -6.21510978	     11.71802328	     -9.39390714	      7.88790252	      3.22420660	     41.45144803	    -18.97250193	     -4.24899812	     96.77543606	     44.44777112	      0.00000000	      0.00000000	    -11.75261807	     -8.03957841	      1.11334101	     31.21289997	     45.27748146	      0.00000000	      0.00000000
      8.68300000	     -5.53061037	     -5.44397043	      6.22963385	      0.76302466	      0.92617005	      0.49913520	      2.90445072	      5.76224256	    -20.65386177	      7.82394770	      7.82394770	     12.27364605	      3.46461819	     -6.23321994	     32.82202788	     -7.44893439	     -1.10862335	     17.76425729	     17.76425729	      8.05343732	     -6.06353259	     11.23912669	     -9.41309229	      7.86002686	      2.99473646	     42.45534772	    -18.40829591	     -3.76417956	     97.48992932	     44.43103066	      0.00000000	      0.00000000	    -12.61655375	     -8.12589088	      1.62070212	     31.53545447	     45.20075527	      0.00000000	      0.00000000
      8.69650000	     -5.56471060	     -5.52708885	      6.24738548	      0.76373890	      0.92517734	      0.49802588	      2.40753888	      5.84175314	    -20.59458773	      7.82401474	      7.82401474	     12.73251465	      3.44197459	     -6.35255465	     32.64765664	     -7.36678155	     -1.45385705	     18.01733219	     18.01733219	      7.52201394	     -6.20749449	     11.37219181	     -9.05380935	      7.84061257	      3.16351313	     42.59699588	    -18.36425228	     -3.74339436	     97.55592909	     44.42970483	      0.00000000	      0.00000000	    -12.83264240	     -8.14174119	      1.63487200	     31.48369050	     45.19591605	      0.00000000	      0.00000000
      8.71000000	     -5.41527075	     -5.47801657	      6.02605463	      0.76486155	      0.92427113	      0.49707903	      1.62638798	      5.80507108	    -20.24439651	      7.75454556	      7.75454556	     13.21149960	      3.59834264	     -6.30936456	     32.35969412	     -7.30745078	     -1.83252043	     18.91996027	     18.91996027	      7.00525824	     -6.85694901	     11.03716369	     -8.98213972	      7.59827211	      3.30384573	     42.83168823	    -18.08287658	     -3.57618397	     97.77597618	     44.42294888	      0.00000000	      0.00000000	    -13.21866666	     -8.16118226	      1.74489643	     31.42913294	     45.17728890	      0.00000000	      0.00000000
